# xmcd
#
# Track frame offsets:
#	183
#	12983
#	26170
#	38270
#	50883
#	73158
#	94995
#	106545
#	128945
#	141033
#
# Disc length: 2355
#
# Revision: 1
# Processed by: cddbd v1.5.1PL0 Copyright (c) Steve Scherf et al.
# Submitted via: Axialis_AX_CDPlayer 2.6
# Normalized: r0:TDELIM( - )
#
DISCID=8509310a
DTITLE=Variés - Music Legend Collection 'Blues'
DYEAR=1900
DGENRE=
TTITLE0=James Brown - It's a man's man's man's world
TTITLE1=Ben E King - Stand by me
TTITLE2=Sam and Dave - Dock of the bay
TTITLE3=Percu Sledge - When a man loves a women
TTITLE4=Ella Fitzgerald and Louis Armstrong - Summertime
TTITLE5=Louis Armstrong - Nobody knows the trouble I've seen
TTITLE6=The Platters - Sixteen tons
TTITLE7=Lucky Petterson - who's been talkin' ?
TTITLE8=Nina Simone - Trouble in mind
TTITLE9=Jimmy Smith - Got my mojo workin'
EXTD=Distribué par Coca Cola 1994
EXTT0=
EXTT1=
EXTT2=
EXTT3=
EXTT4=
EXTT5=
EXTT6=
EXTT7=
EXTT8=
EXTT9=
PLAYORDER=
